Coordinates
version=1
nRows=16
nColumns=36
inDegrees=yes

Units are S.I. units (second, meters, Newtons, ...)
If the header above contains a line with 'inDegrees', this indicates whether rotational values are in degrees (yes) or radians (no).

endheader
time	pelvis_tilt	pelvis_list	pelvis_rotation	pelvis_tx	pelvis_ty	pelvis_tz	hip_flexion_r	hip_adduction_r	hip_rotation_r	knee_angle_r	knee_angle_r_beta	ankle_angle_r	subtalar_angle_r	mtp_angle_r	hip_flexion_l	hip_adduction_l	hip_rotation_l	knee_angle_l	knee_angle_l_beta	ankle_angle_l	subtalar_angle_l	mtp_angle_l	lumbar_extension	lumbar_bending	lumbar_rotation	arm_flex_r	arm_add_r	arm_rot_r	elbow_flex_r	pro_sup_r	arm_flex_l	arm_add_l	arm_rot_l	elbow_flex_l	pro_sup_l
      1.46000000	    -27.21609505	     -3.46619351	     -2.08812714	     -0.29902158	      0.77797486	     -0.58725126	     73.81069801	     -1.74528597	     -5.14471673	     74.34992942	      1.29765107	     21.94860525	     -3.59803403	     -7.46910829	     73.87496879	     -8.25905356	      6.67691078	     82.26135858	      1.43573155	     14.70021558	    -12.40315606	     -7.46910829	    -32.80242323	     -0.63436186	     -3.84051973	     19.83516877	     -5.99367355	      1.79501471	    102.63391653	     99.80027075	     36.31056858	    -11.47941843	     11.56941746	     85.55421427	    109.86811298
      1.47000000	    -26.95583371	     -3.55258109	     -2.02957721	     -0.29639140	      0.77888048	     -0.58717396	     72.91712928	     -1.66518309	     -5.32496225	     73.92940213	      1.29031148	     22.95987174	     -3.68873735	     -7.47528956	     72.80730862	     -8.30539282	      6.53341551	     81.66333684	      1.42529411	     16.06621527	    -12.45727167	     -7.47528956	    -32.21881683	     -0.49398544	     -3.86268500	     19.50474021	     -6.48303815	      1.18023946	    103.14184898	     99.31918238	     35.61575264	    -11.89989221	     11.32116784	     85.83235128	    110.16115923
      1.48000000	    -26.54990406	     -3.67283322	     -1.99595959	     -0.29362036	      0.77999753	     -0.58705081	     71.86913693	     -1.52579358	     -5.45141297	     73.50785011	      1.28295401	     24.02640807	     -3.62669072	     -7.48182538	     71.49914987	     -8.38482222	      6.43545066	     80.96077721	      1.41303213	     17.59759915	    -12.45938316	     -7.48182538	    -31.69592732	     -0.32440891	     -3.81917763	     19.29166281	     -7.04631476	      0.50805061	    104.09152671	     99.04792784	     34.96704585	    -12.38984038	     11.09742727	     86.41915303	    110.17680558
      1.49000000	    -25.98211698	     -3.73081307	     -1.96260322	     -0.29070115	      0.78134137	     -0.58700776	     70.66054623	     -1.40887091	     -5.47562796	     73.06018758	      1.27514083	     25.00131352	     -3.54333093	     -7.48456970	     69.96907960	     -8.39850702	      6.31262892	     80.27458778	      1.40105586	     19.33917558	    -12.40701935	     -7.48456970	    -31.19729452	     -0.22064023	     -3.85517847	     19.19814353	     -7.60743746	     -0.25623734	    105.49930744	     98.99340569	     34.22604573	    -13.09162136	     10.92482078	     87.48764507	    110.25881250
      1.50000000	    -25.22963222	     -3.80052006	     -1.92267020	     -0.28758185	      0.78320932	     -0.58709219	     69.29360465	     -1.27881268	     -5.48621028	     72.68286423	      1.26855529	     25.72283249	     -3.69748770	     -7.48475030	     68.12491718	     -8.36118393	      6.26643960	     79.36228000	      1.38513309	     20.70365614	    -12.94286007	     -7.48475030	    -30.77822575	     -0.01942768	     -3.82281942	     19.11458660	     -8.22554454	     -1.18870916	    107.50599949	     99.24771698	     33.31174309	    -13.96715892	     10.81056044	     89.14225075	    110.34782467
      1.51000000	    -24.49224749	     -4.02901028	     -1.98005601	     -0.28449552	      0.78515394	     -0.58684819	     67.94693732	     -0.96740854	     -5.65779943	     72.27718703	      1.26147489	     26.42690225	     -3.73859378	     -7.48502064	     66.30590283	     -8.54258933	      6.35388524	     78.45403187	      1.36928117	     22.36471934	    -13.05482822	     -7.48502064	    -30.17337315	      0.27439719	     -3.62802892	     18.90147769	     -8.97834989	     -2.25424311	    110.22451837	     99.59976931	     32.20268219	    -14.97205894	     10.72334063	     91.45099122	    110.44072370
      1.52000000	    -23.99012434	     -4.67033807	     -2.20817963	     -0.28164191	      0.78693318	     -0.58561270	     66.79632557	     -0.14713253	     -6.13408076	     71.70518698	      1.25149160	     26.81606681	     -4.21769455	     -7.48564262	     64.87963321	     -9.27768769	      6.71802025	     77.64976703	      1.35524410	     24.58883111	    -12.27292919	     -7.48564262	    -29.09810618	      0.86001090	     -3.07021602	     18.43003142	     -9.84286298	     -3.44930586	    113.46475015	    100.09835086	     30.88551721	    -16.06981785	     10.69044485	     94.23658805	    110.44267875
      1.53000000	    -23.57615058	     -5.27800292	     -2.55565729	     -0.27872302	      0.78931800	     -0.58389963	     65.70708246	      0.85558097	     -6.44405545	     70.99169059	      1.23903874	     27.06272958	     -4.59001440	     -7.48577851	     63.49929233	    -10.11092476	      6.94066748	     76.68389148	      1.33838639	     25.77539194	    -12.71305361	     -7.48577851	    -27.80124928	      1.37483813	     -2.52671985	     17.89137822	    -10.63530741	     -4.67919334	    117.06328234	    100.35977141	     29.39204023	    -17.46914249	     10.71346718	     97.54600614	    110.72105039
      1.54000000	    -22.89291359	     -5.39583071	     -2.82757726	     -0.27478555	      0.79377894	     -0.58312580	     64.17928734	      1.38119413	     -6.40641415	     70.04374004	      1.22249388	     27.07934367	     -4.86292421	     -7.48588281	     61.43055074	    -10.42221759	      6.73821388	     75.28616154	      1.31399140	     26.74302172	    -12.96593245	     -7.48588281	    -26.67563210	      1.53171442	     -2.25555483	     17.27060320	    -11.37494897	     -5.92820201	    120.72594733	    100.61980390	     27.87847328	    -18.88061890	     10.69292512	    100.81710839	    110.98775415
      1.55000000	    -21.69318726	     -4.89361266	     -2.94769037	     -0.26973365	      0.80044227	     -0.58361945	     62.07743379	      1.22624740	     -5.91657081	     69.23024601	      1.20829573	     26.93741044	     -5.13529002	     -7.48609540	     58.53188596	    -10.07710599	      5.94051337	     73.68528542	      1.28605084	     27.57864771	    -13.23899961	     -7.48609540	    -26.12843750	      1.10788311	     -2.28663939	     16.58630923	    -12.23345560	     -7.56113988	    124.67104887	    100.94609950	     26.33247974	    -20.42020013	     10.73425854	    104.60672958	    111.19267988
      1.56000000	    -21.09033565	     -4.53872162	     -2.96267020	     -0.26458221	      0.80774974	     -0.58416823	     60.34262985	      1.03208770	     -5.65897321	     67.88822958	      1.18487313	     26.66219708	     -5.04777433	     -7.48620080	     56.40749328	     -9.64741451	      5.54118712	     71.92846281	      1.25538850	     27.51993888	    -13.35415291	     -7.48620080	    -24.66913569	      0.91095153	     -2.38803734	     15.45483784	    -13.20491729	     -8.71334357	    128.21981528	    101.21198573	     24.62455246	    -22.04731365	     10.99804732	    108.02422562	    111.44327407
      1.57000000	    -20.54890005	     -4.36733177	     -3.06635235	     -0.25948690	      0.81610236	     -0.58369086	     58.61031566	      1.13536332	     -5.48421944	     66.36439547	      1.15827721	     26.00996313	     -5.00461083	     -7.48633754	     54.53427381	     -9.62641023	      5.11603474	     70.29317850	      1.22684741	     26.74183202	    -13.48798487	     -7.48633754	    -23.15665398	      0.80521502	     -2.36760084	     14.18084421	    -14.22682392	    -10.00093327	    131.76629694	    101.47437835	     22.71665667	    -23.90141064	     11.20686459	    111.81839727	    111.66017800
      1.58000000	    -20.07268993	     -4.34349509	     -3.14711042	     -0.25418519	      0.82610739	     -0.58273192	     56.70888809	      1.35952139	     -5.45077737	     64.35381389	      1.12318594	     24.88871465	     -4.91391318	     -7.48646690	     52.69517643	     -9.80887848	      4.74566685	     68.37288081	      1.19333189	     25.41042285	    -13.47669674	     -7.48646690	    -21.52057458	      0.80353230	     -2.30666184	     12.66657466	    -15.27876232	    -10.86299269	    134.86571420	    101.72324940	     20.77410625	    -25.69546350	     11.35100476	    115.34738693	    111.82759102
      1.59000000	    -19.26896723	     -4.10669165	     -3.05324035	     -0.24847987	      0.83854899	     -0.58252157	     54.29433178	      1.17642749	     -5.45477629	     61.99204696	      1.08196533	     22.67013384	     -5.73385898	     -7.48698307	     50.25157005	     -9.61339100	      4.16610247	     65.84804311	      1.14926516	     22.39622107	    -15.03933854	     -7.48698307	    -20.29520796	      0.65747035	     -2.72524796	     11.34342180	    -16.37504612	    -11.11563107	    137.25705521	    102.16801732	     18.43200123	    -27.47103989	     11.00084537	    118.83604293	    111.37890408
      1.60000000	    -18.39184528	     -3.76724438	     -2.82704076	     -0.24238466	      0.85271492	     -0.58283069	     51.60192915	      0.66300844	     -5.63393936	     59.31732565	      1.03528264	     20.81264210	     -5.36224420	     -7.48755163	     47.52355827	     -9.28005889	      3.42699970	     62.89692676	      1.09775846	     19.76046205	    -15.47059145	     -7.48755163	    -19.16926214	      0.46393276	     -3.29201006	      9.79185094	    -17.58623007	    -10.92115161	    139.29771222	    102.71607483	     15.87600027	    -29.11546797	     10.59957359	    122.06485512	    110.98314633
      1.61000000	    -17.50856518	     -3.46138328	     -2.62437971	     -0.23586825	      0.86849839	     -0.58262215	     48.63913307	      0.22393736	     -5.91735249	     56.15297108	      0.98005423	     18.63912639	     -4.59420197	     -7.48779318	     44.54091432	     -9.20647216	      2.37149539	     59.43698643	      1.03737111	     17.34917595	    -14.68097002	     -7.48779318	    -18.07854288	      0.20531305	     -3.61472773	      7.69141457	    -18.76611810	    -10.83360054	    141.08175296	    103.02012496	     13.40069830	    -30.52216469	     10.42430544	    124.67551737	    110.91398183
